<?xml version="1.0" encoding="UTF-8"?>
<svg id="Layer_2" data-name="Layer 2" xmlns="http://www.w3.org/2000/svg" viewBox="0 0 392.04 335.36">
  <g id="Layer_1-2" data-name="Layer 1">
    <path d="M247.03,204.67c-1.11,38.03-36.79,51.5-73.3,49.95,14.68,31.72,42.21,54.27,77.58,51.42l-2.95,4.17c-37.89-.99-69.88-22.83-89.05-55.61l-57.91-.11c5.55-1.98,9.08-5.02,11.22-9.96,1.29-5.28,2.29-10.25,2.29-15.98V90.78c-.02-10.23-3.73-19.72-13.44-22.69h50.07c-10.86,2.71-14.18,13.09-14.17,24.55l.02,60.59,16.68.08c12.36-28.97,35.58-50.72,65.36-61.82,3.64-36.43-14.71-69.03-49.16-81.66-29.08-10.66-66.5-6.32-94.33,7.11-30.26,14.61-51.15,41.84-57.27,75.16-5.16,28.09-1.39,56.84,10.52,82.7,14.3,31.03,42.95,53.34,77.07,50.51-.8,1.28-2.26,3.01-3.26,3.81-39.57-.4-73.4-25.78-91.43-60.43C1.97,150.26-1.01,131.1.29,110.51,3.02,67.48,28.44,30.48,68.15,13.21c36.78-16,84.71-18.47,121.77-1.86,29.94,13.71,52.47,39.35,51.56,73.44,36.62-7.36,73.08-5.34,105.31,13.62,15.35,9.78,28.33,22.61,34.94,39.93,7.05,18.45,6.44,39.34-1,57.56-7.69,18.82-23.43,31.15-41.76,38.44,29.54,3.94,52.64,19.22,53.06,49.37.47,34.32-30.22,51.49-62.57,51.53l-83.04.12c10.06-2.98,13.41-13.2,13.41-23.8v-140.8c0-10.04-4.41-19.18-13.33-21.85l50.09.02c-10.41,2.48-14.29,12.28-14.29,23.72l.02,61.42,36.21-.24c12.2-.08,21.35-8.22,29.12-17.24,27.12-38.13,22.97-93.04-18.06-118.99-26.66-16.01-59.07-15.57-88.34-7.51-.8,29.98-19.82,52.89-46.7,63.26,11.91,2.61,21.7,4.74,30.71,10.47,14.61,8.92,22.24,23.89,21.75,40.86ZM218,99.38c-22.76,11.49-39.29,30.18-48.69,53.67,26.96,1.09,44.61-28.08,48.69-53.67ZM152.67,156.45h-15.3s0,94.94,0,94.94l20.02-.1c-16.08-30.24-15.52-63.52-4.72-94.84ZM219.38,185.97c-5.97-21.99-29.45-30.8-51.59-29.32-10.31,31.45-7.77,64.41,4.28,94.69,9.34.37,17.72-.67,25.76-4.28,22.23-10,27.84-37.93,21.55-61.09ZM344.05,242.92c-7.93-3.44-16.57-5.63-25.53-5.64l-36.21-.07v95.06s44.1-.37,44.1-.37c18.38-.15,32.96-12.4,37.85-29.68,6.24-22.06,1.78-49.01-20.22-59.3Z"/>
  </g>
</svg>