<?xml version="1.0" encoding="UTF-8"?>
<svg id="Layer_2" data-name="Layer 2" xmlns="http://www.w3.org/2000/svg" viewBox="0 0 503.02 552.73">
  <g id="Layer_1-2" data-name="Layer 1">
    <g>
      <path d="M247.03,204.67c-1.11,38.03-36.79,51.5-73.3,49.95,14.68,31.72,42.21,54.27,77.58,51.42l-2.95,4.17c-37.89-.99-69.88-22.83-89.05-55.61l-57.91-.11c5.55-1.98,9.08-5.02,11.22-9.96,1.29-5.28,2.29-10.25,2.29-15.98V90.78c-.02-10.23-3.73-19.72-13.44-22.69h50.07c-10.86,2.71-14.18,13.09-14.17,24.55l.02,60.59,16.68.08c12.36-28.97,35.58-50.72,65.36-61.82,3.64-36.43-14.71-69.03-49.16-81.66-29.08-10.66-66.5-6.32-94.33,7.11-30.26,14.61-51.15,41.84-57.27,75.16-5.16,28.09-1.39,56.84,10.52,82.7,14.3,31.03,42.95,53.34,77.07,50.51-.8,1.28-2.26,3.01-3.26,3.81-39.57-.4-73.4-25.78-91.43-60.43C1.97,150.26-1.01,131.1.29,110.51,3.02,67.48,28.44,30.48,68.15,13.21c36.78-16,84.71-18.47,121.77-1.86,29.94,13.71,52.47,39.35,51.56,73.44,36.62-7.36,73.08-5.34,105.31,13.62,15.35,9.78,28.33,22.61,34.94,39.93,7.05,18.45,6.44,39.34-1,57.56-7.69,18.82-23.43,31.15-41.76,38.44,29.54,3.94,52.64,19.22,53.06,49.37.47,34.32-30.22,51.49-62.57,51.53l-83.04.12c10.06-2.98,13.41-13.2,13.41-23.8v-140.8c0-10.04-4.41-19.18-13.33-21.85l50.09.02c-10.41,2.48-14.29,12.28-14.29,23.72l.02,61.42,36.21-.24c12.2-.08,21.35-8.22,29.12-17.24,27.12-38.13,22.97-93.04-18.06-118.99-26.66-16.01-59.07-15.57-88.34-7.51-.8,29.98-19.82,52.89-46.7,63.26,11.91,2.61,21.7,4.74,30.71,10.47,14.61,8.92,22.24,23.89,21.75,40.86ZM218,99.38c-22.76,11.49-39.29,30.18-48.69,53.67,26.96,1.09,44.61-28.08,48.69-53.67ZM152.67,156.45h-15.3s0,94.94,0,94.94l20.02-.1c-16.08-30.24-15.52-63.52-4.72-94.84ZM219.38,185.97c-5.97-21.99-29.45-30.8-51.59-29.32-10.31,31.45-7.77,64.41,4.28,94.69,9.34.37,17.72-.67,25.76-4.28,22.23-10,27.84-37.93,21.55-61.09ZM344.05,242.92c-7.93-3.44-16.57-5.63-25.53-5.64l-36.21-.07v95.06s44.1-.37,44.1-.37c18.38-.15,32.96-12.4,37.85-29.68,6.24-22.06,1.78-49.01-20.22-59.3Z"/>
      <g>
        <g>
          <path d="M483.74,485.1l-7.66-14.91c-3.89-7.58-10.74-13.12-20.25-12.77l.05,30.57c2.35,2.13,6.05,2.51,9.71,3.53l-27.13-.02c3.55-1,7.32-1.45,9.43-3.72l.05-57.17c0-1.15-.58-3.28-1.36-3.76-.98-.59-3.75-.93-4.87-.72l-2.72.51c-.45.08-.37-1.39-.27-1.71l31.77-1.08c6.91-.23,14.14,1.29,19.28,5.49,4.08,3.33,5.08,8.37,4.48,13.65-1.12,9.82-11.75,14.29-23.38,16.04,6.93,3.16,13.62,7.73,17.21,15l6.54,13.24c.72,1.46,3.24,3.81,4.44,3.26,1.37-.63,2.68-3.42,3.76-5.53.63,1.34-.33,4.95-1.65,6-1.75,1.39-4.85,2.33-7.23,1.95-3.92-.62-8.19-3.96-10.2-7.89ZM473.57,456.37c8.04-1.63,12.2-8.41,12.28-15.61.1-10.1-7.77-17.27-17.41-15.6l-12.58,2.19-.06,28.26c5.33,1.3,11.81,1.97,17.77.76Z"/>
          <path d="M355.57,490.09c-5.39,1.97-10.7,2.18-16.04,2.05l-30.06-.71,9.56-2.63-.09-60.28c-1.9-2.61-6.72-2.27-9.88-3.41l29.46-.82c5.87-.16,11.9.32,17.25,2.08,7.48,2.47,10.79,9.75,8.3,17.11-1.94,5.75-6.92,8.58-13.28,11.41,6.15,2.27,12.16,4.43,15.13,10.34,4.74,9.42-.05,21.1-10.35,24.86ZM343.03,453.79c8.34-.22,13.77-6.58,13.73-13.54s-4.45-12.65-12.01-14.13c-5.7-1.11-11.46-.27-17.75,1.57l.18,26.52,15.86-.42ZM355.32,461.6c-4.6-5.54-11.6-6.05-17.71-6.08l-10.61-.05.04,32.16c7.62,3.66,15.82,4.87,23.23.74,9.07-5.06,11.91-18.49,5.04-26.76Z"/>
          <path d="M412.32,464.77l-23.86-.12-6.86,18.31c-.53,1.4-.66,5.73.74,6.25l6.28,2.35-18.17.07c3.18-1.66,5.83-3.35,7.52-6.65,6.6-12.89,11.14-26.22,16.14-39.8,2.73-7.42,4.9-14.06,9.59-21.82l24.61,63.57c1.01,2.6,5.3,3.3,8.31,4.62l-25.16.03,8.82-2.61-7.94-24.2ZM411.42,462.87l-11.17-29.08-11.13,29.41,22.3-.34Z"/>
        </g>
        <g>
          <path d="M72.24,489.79c-4.81,1.98-9.85,2.44-14.67,2.34l-32.11-.68,9.55-2.65-.05-60.29c-2.43-2.37-6.41-2.26-9.97-3.38l29.53-.82c5.62-.16,11.47.28,16.62,1.83,8.39,2.52,11.98,10.87,8.32,18.8-2.23,4.84-6.92,7.27-12.61,10.02,6.05,2.14,12.11,4.38,15.07,10.28,4.6,9.14.21,20.49-9.69,24.56ZM59.03,453.79c7.99-.21,13.32-6.09,13.69-12.6.41-7.19-3.66-13.03-11.19-14.86-5.92-1.44-11.96-.54-18.54,1.38l.18,26.49,15.86-.41ZM75.06,472.11c.07-8.9-6.33-15.81-14.97-16.13l-17.07-.63.02,32.35c5.82,2.76,11.99,3.98,17.94,2.72,8.64-1.83,13.99-8.86,14.07-18.31Z"/>
          <path d="M250.74,492.02l-36.29-.53,9.53-2.67.04-58.23c0-1.03-.7-3.2-1.48-3.66-.98-.57-3.73-.94-4.83-.75l-2.72.48c-.48.08-.37-1.39-.26-1.7l34.87-.86c2.83-.07,7.15.94,10.12,1.53,12.05,2.41,21.23,11.03,23.31,23.23,1.88,11.01-.05,22.46-7.02,31.41-5.65,7.25-15.19,11.9-25.26,11.75ZM270.56,477.1c5.48-11.15,5.82-23.85,1.77-35.05-5.89-16.25-23.01-19.55-40.37-14.21l-.04,60.08c14.38,6.02,31.62,3.46,38.64-10.83Z"/>
          <path d="M126.69,457.89l-17.78-.72.45,30.46c.06,4.22,6.78,2.36,9.19,2.29,14.33-.42,23.72,1.21,28.2-13.17l-2.31,14.96-53.01-.12,9.59-2.8-.13-60.3c-.53-3.66-7.14-.67-9.67-3.5l51.79-.3,1.12,14.71c-1.98-2.76-2.1-5.49-2.56-8.68-6.62-4.24-14.29-4.36-22.05-4.31-3.48.02-7-.37-10.4,1.34l-.25,28.18,19.61-1.21c2.79-.17,3.43-4.03,4.73-7.09l.03,18.44-1.82-5.51c-.39-1.18-3.34-2.61-4.71-2.66Z"/>
          <path d="M188.32,464.77l-23.86-.12-6.86,18.31c-.52,1.4-.65,5.74.74,6.25l6.27,2.34-18.16.09c3.18-1.64,5.82-3.36,7.51-6.67,6.6-12.88,11.14-26.22,16.14-39.79,2.73-7.42,4.9-14.06,9.59-21.82l24.61,63.57c1.01,2.6,5.3,3.3,8.31,4.62l-25.16.03,8.82-2.61-7.94-24.2ZM187.42,462.87l-11.17-29.08-11.13,29.41,22.3-.34Z"/>
        </g>
      </g>
      <g>
        <path d="M228.91,542.51l2.19,4.57c.53,1.11-1.9,4.1-3.2,4.15l-11.67.46.05-17.58,9.7.21c1.11.02,3.76,1.56,3.85,2.63.1,1.25-.57,3.67-.92,5.55ZM226.55,536.24c-2.09-.47-6.63-.54-8.15-.31-.34,2.14-.6,5.8.61,5.88l4.79.29c1.17.07,3.46-1.08,4.23-1.95.62-.7-.59-3.71-1.48-3.91ZM226.85,549.83c1.05-.05,2.75-2.88,2.32-3.66s-2.01-2.32-2.87-2.36l-8.02-.32.21,6.71,8.36-.39Z"/>
        <path d="M303.52,551.68h-8.23s-.02-17.5-.02-17.5l7.21-.04c5.32-.03,9.12,3.43,9.41,8.3s-3.09,8.84-8.37,9.23ZM306.53,548.87c2.1-.73,3.73-4.84,3.51-6.65s-2.45-5.57-4.4-5.72l-8.45-.67.09,14.32c3.26-.06,5.84-.08,9.24-1.27Z"/>
        <path d="M249.53,552.64l-4.01-4.07c-1.08-1.1-2.53-2.19-3.6-2.65-1.13-.49-4.47,1.31-4.2,2.54.25,1.14-.04,3.43-1.72,3.57l-.2-17.97,8.76.29c1.72.06,4.5,2.51,4.85,4.15.53,2.45-.82,5.65-3.1,7.28l3.22,6.85ZM246.61,543.08c1.38-.66,1.06-5.67-.4-6.25-2.15-.85-6.11-1.21-8.38-.77l.16,8.55c3.43,0,5.79-.18,8.61-1.54Z"/>
        <polygon points="288.31 552.73 276.19 538.81 275.62 551.6 273.7 551.64 274.13 532.95 286.39 547.6 286.74 533.66 288.55 533.62 288.31 552.73"/>
        <path d="M266.67,548.51c-1.52-2.22-8.58-2.37-10.18-.27-1.46,1.92-2.43,3.18-3.97,3.83l7.77-17.76,2.4.04,7.8,17.73c-1.19-.3-2.45-1.6-3.81-3.57ZM265.64,545.26l-4.3-8.53-3.91,8.7,8.21-.17Z"/>
      </g>
    </g>
  </g>
</svg>